<svg version="1.1" id="Layer_1" xmlns="http://www.w3.org/2000/svg" xmlns:xlink="http://www.w3.org/1999/xlink" x="0px" y="0px"
	 width="100%" viewBox="180 50 675 462" enable-background="new 0 0 1024 544" xml:space="preserve">
<path fill="currentColor" opacity="1.000000" stroke="none" 
	d="
M388.707031,444.700623 
	C387.197479,453.332794 385.108917,461.374115 381.757812,469.051636 
	C377.259033,479.358673 374.582245,490.132416 373.426208,501.301544 
	C373.196259,503.523224 372.889191,505.929016 370.074005,506.082428 
	C366.907501,506.254944 366.351868,503.556946 366.103638,501.276093 
	C365.019196,491.312195 366.757538,481.632111 370.148773,472.340118 
	C374.210449,461.211060 377.599243,449.939331 379.852356,438.305206 
	C380.806030,433.380768 383.569763,429.083710 385.597626,424.094116 
	C380.815857,420.484894 375.998383,416.989960 371.334167,413.301239 
	C358.170074,402.890289 346.422363,391.253113 338.335114,376.248260 
	C331.082733,362.792389 330.279175,347.907532 328.107727,333.302185 
	C327.985565,332.480408 328.303345,331.653656 329.351776,331.188995 
	C331.783112,331.756348 331.574463,334.137085 332.153625,335.850311 
	C334.125275,341.682861 335.814087,347.611572 337.813568,353.433990 
	C343.079681,368.768799 354.063416,379.210266 367.592896,387.189697 
	C390.997223,400.993042 415.996826,410.915619 442.492645,416.995453 
	C444.743958,417.512054 447.097778,417.714508 449.413422,417.796722 
	C464.446442,418.330139 471.648102,410.196106 469.379517,395.334412 
	C467.746918,384.638794 468.538757,381.564056 475.151215,373.451965 
	C472.950134,370.368835 469.482635,368.607788 466.741394,366.072693 
	C462.697815,362.333191 458.702942,358.615173 455.714264,353.893311 
	C453.002106,349.608276 453.352661,345.851593 456.616486,342.056976 
	C463.387756,334.184601 470.722260,326.921478 479.608887,321.475677 
	C482.885284,319.467865 483.724091,317.802216 482.023071,313.981995 
	C478.104980,305.182709 481.634674,296.971222 490.393402,292.914703 
	C490.544312,292.844818 490.705475,292.797272 490.857239,292.729034 
	C504.590424,286.558044 504.651520,286.356903 496.486542,273.430542 
	C489.368835,262.162170 482.343140,250.833893 475.084686,239.656830 
	C470.498474,232.594635 468.262268,225.178253 470.751068,216.910080 
	C475.096436,202.474045 471.306519,188.474686 468.376007,174.535675 
	C455.846558,114.939186 413.402618,82.265869 360.606781,72.235016 
	C325.138672,65.496315 290.919006,69.532646 258.685211,86.316780 
	C219.096176,106.930794 197.523834,140.776550 189.493378,183.680237 
	C183.270660,216.925781 187.759598,249.014420 203.414154,279.236725 
	C210.939392,293.764709 221.011490,306.731110 229.326828,320.781738 
	C238.573761,336.406494 245.860123,352.858582 247.722946,371.065277 
	C250.710403,400.263885 246.879486,428.515656 234.148804,455.253448 
	C233.791626,456.003632 233.389267,456.745605 232.909454,457.421448 
	C231.838165,458.930542 230.635345,460.756653 228.537598,459.963104 
	C226.106415,459.043488 226.496048,456.709015 227.074631,454.786591 
	C230.575668,443.154083 234.020142,431.525391 236.237762,419.544556 
	C243.013992,382.935699 236.983093,349.047211 215.503220,318.208435 
	C203.302277,300.691467 191.287659,282.973114 184.985168,262.279907 
	C167.474014,204.784790 176.125153,151.825455 215.887009,106.174477 
	C242.185226,75.981216 277.420013,62.257244 317.173889,59.620995 
	C345.934998,57.713730 373.669067,61.504875 400.019623,73.504944 
	C442.649597,92.918686 468.261566,126.030777 478.243591,171.513596 
	C480.095306,179.950775 481.577850,188.474487 483.027191,196.992874 
	C484.342957,204.725983 482.330292,212.270920 480.940979,219.762039 
	C479.952332,225.092590 481.026184,229.616364 483.791870,234.009491 
	C491.159546,245.712601 498.515594,257.423035 505.867828,269.135864 
	C508.083984,272.666473 510.216187,276.238922 511.451263,280.267365 
	C513.461609,286.824707 511.464111,292.545563 505.822327,296.405243 
	C502.768036,298.494812 499.319519,299.754333 495.970734,301.238556 
	C490.898804,303.486420 489.747833,306.853882 492.303528,311.659607 
	C497.839539,322.069519 496.109283,328.862885 486.020325,335.081116 
	C479.664246,338.998627 473.102325,342.582214 466.670593,346.293793 
	C467.420135,349.351562 469.877655,349.622437 471.672424,350.540802 
	C476.442474,352.981567 481.091949,355.605164 484.919708,359.385712 
	C491.413147,365.798981 490.983521,374.129425 483.722443,379.548584 
	C480.105072,382.248322 478.582489,385.484589 479.157623,389.862854 
	C479.482605,392.336761 479.759399,394.817474 480.027313,397.298401 
	C482.117218,416.653595 467.108521,431.427826 447.702850,428.836792 
	C438.146820,427.560852 428.690033,425.557617 419.148987,424.149811 
	C400.516571,421.400543 393.590637,426.081909 388.707031,444.700623 
z"/>
<path fill="currentColor" opacity="1.000000" stroke="none" 
	d="
M718.193359,340.402771 
	C718.184570,342.771606 718.789001,344.806183 717.523132,346.634766 
	C715.264526,347.181122 713.693176,345.665649 712.014343,344.744263 
	C700.106201,338.208679 687.661377,333.969452 673.809570,335.324921 
	C672.332825,335.469452 670.758667,335.559509 669.430969,334.683502 
	C661.969116,329.760284 655.413391,323.553772 647.347107,320.109955 
	C647.817505,316.964813 649.852722,316.597717 651.361633,315.732300 
	C671.660461,304.090393 692.865845,304.031677 714.594116,310.853424 
	C719.518188,312.399414 724.437256,313.961456 729.352356,315.535919 
	C742.696594,319.810669 755.002380,317.310394 766.491577,309.768280 
	C771.362427,306.570770 776.086060,303.149323 780.950256,299.941345 
	C797.090149,289.296875 816.425476,295.360931 826.685730,308.977783 
	C829.958984,313.321899 832.945068,317.860077 833.796814,323.504333 
	C831.344604,324.143616 830.616577,322.260406 829.504761,321.241882 
	C813.649475,306.717255 796.754211,306.176422 780.089172,319.751099 
	C775.957153,323.116913 772.026184,326.740692 767.787292,329.962250 
	C755.348145,339.415955 742.121277,340.271240 728.533813,332.720428 
	C720.597473,328.310059 712.652832,324.255737 701.924988,324.391174 
	C710.486572,327.413635 716.292114,331.814941 718.193359,340.402771 
z"/>
<path fill="currentColor" opacity="1.000000" stroke="none" 
	d="
M547.866211,349.294067 
	C539.854553,348.785278 532.306152,348.288605 524.525574,347.776642 
	C524.902405,345.466370 526.366089,345.231293 527.522156,345.060516 
	C543.480286,342.703278 559.425598,340.016052 575.641846,342.611725 
	C587.682556,344.539032 597.885925,350.261322 607.182068,357.835999 
	C610.535339,360.568359 613.773987,363.442749 617.036255,366.285248 
	C644.114075,389.878937 685.868103,388.813904 711.599487,363.731537 
	C718.217102,357.280884 723.330994,349.942749 721.638550,339.927216 
	C721.182190,337.226562 720.264099,334.603973 719.497437,331.717651 
	C725.360962,333.540649 729.915710,340.775513 730.323914,348.372559 
	C731.243835,365.493622 722.218811,377.617767 709.538696,387.139893 
	C678.628296,410.352081 637.299744,407.934509 608.643677,381.765839 
	C605.449829,378.849243 602.099304,376.009491 599.391418,372.671661 
	C586.195251,356.405609 568.268555,350.710480 547.866211,349.294067 
z"/>
<path fill="currentColor" opacity="1.000000" stroke="none" 
	d="
M617.696289,295.715454 
	C622.420044,288.033173 626.585022,280.426056 631.966736,273.594208 
	C643.894836,258.452118 660.295288,252.121857 678.718323,249.659821 
	C684.498047,248.887436 690.229797,247.837830 695.531982,245.188828 
	C705.046387,240.435349 709.410645,232.616257 708.435669,222.021057 
	C708.363342,221.234894 708.426208,220.436279 708.426208,219.542770 
	C713.445679,221.999664 716.882690,230.502441 715.921021,237.677155 
	C714.201416,250.506607 704.791870,259.246826 689.268982,262.214142 
	C681.428162,263.712952 673.486267,264.713745 665.686707,266.389282 
	C657.300415,268.190918 649.658386,271.749969 643.254639,277.961060 
	C668.902039,266.039001 689.627441,280.325073 711.578125,289.408264 
	C710.524048,291.926514 709.194153,291.431305 708.186707,291.174225 
	C675.248962,282.770966 646.800049,292.305420 620.954529,312.725037 
	C608.909607,322.241272 596.554504,331.358368 581.565979,335.881866 
	C575.435852,337.731964 569.208191,339.180969 562.406738,337.129730 
	C584.885864,328.743317 605.016724,317.438660 617.696289,295.715454 
z"/>
<path fill="currentColor" opacity="1.000000" stroke="none" 
	d="
M717.404297,303.820984 
	C709.959839,303.012787 703.043030,301.999969 696.510254,298.166412 
	C698.608704,296.020630 700.518982,296.908630 702.203186,296.921753 
	C707.723328,296.964661 713.146179,296.731964 718.445679,294.835510 
	C733.888916,289.308960 740.030640,274.584564 732.918396,259.765533 
	C730.456604,254.636261 728.012024,249.524200 728.700012,243.581100 
	C729.406677,237.476685 732.133789,232.723190 738.801819,228.737381 
	C737.698303,234.683945 735.056396,239.368652 737.575439,244.221283 
	C739.812317,248.530487 742.875427,252.183167 746.184082,256.422760 
	C758.059143,241.626587 753.646851,227.620316 745.198608,213.396545 
	C759.684814,218.225235 771.503174,237.896240 769.256531,258.704132 
	C766.411987,285.048737 743.381714,305.434418 717.404297,303.820984 
z"/>
<path fill="currentColor" opacity="1.000000" stroke="none" 
	d="
M765.667847,365.772949 
	C771.528137,363.483612 775.653076,359.433807 780.437500,354.093811 
	C781.459961,361.896240 777.290100,366.438843 774.154541,372.179382 
	C789.135681,370.609528 798.179504,361.430420 806.289612,351.145203 
	C808.681885,352.534821 807.527039,354.106598 807.190430,355.365204 
	C801.191467,377.796204 783.364685,392.961823 760.331604,394.541290 
	C747.114868,395.447601 735.135437,391.056274 724.123474,383.885620 
	C722.013733,382.511810 721.695251,381.052032 723.233032,378.953674 
	C725.986389,375.196594 728.558105,371.298737 730.411865,367.001801 
	C731.794128,363.797821 733.945496,364.788361 736.171997,365.737000 
	C745.858887,369.864502 755.573181,369.644409 765.667847,365.772949 
z"/>
<path fill="currentColor" opacity="1.000000" stroke="none" 
	d="
M270.826416,243.835144 
	C261.394287,255.001434 260.505432,273.193604 268.735443,287.746460 
	C275.559235,299.812775 285.733185,308.682312 297.508575,315.563751 
	C306.258942,320.677368 313.222687,318.391296 318.431183,309.731384 
	C319.519379,307.922089 320.663361,306.086792 323.078308,307.186951 
	C325.284698,308.192108 325.175293,310.240814 324.774139,312.369141 
	C322.495850,324.456329 310.723114,330.631989 298.083344,326.390778 
	C290.617310,323.885559 284.742310,318.911835 278.902008,313.984131 
	C266.830688,303.799011 257.137970,292.073975 254.102798,275.855927 
	C250.456070,256.370148 257.057678,239.371155 272.082703,230.829742 
	C288.137451,221.702957 309.171417,228.747620 315.041809,245.279922 
	C315.654816,247.006271 317.275909,249.285065 314.743408,250.595184 
	C312.253448,251.883270 311.243286,249.297485 310.193054,247.806686 
	C304.228882,239.340683 296.287903,235.203400 285.830109,236.075272 
	C279.851868,236.573669 275.063660,239.251083 270.826416,243.835144 
z"/>
<path fill="currentColor" opacity="1.000000" stroke="none" 
	d="
M542.700928,366.081299 
	C559.038574,372.067505 570.367798,383.682037 580.776062,396.483276 
	C588.046692,405.425446 596.897888,411.747742 608.685730,413.432098 
	C612.513794,413.979095 616.232300,412.192719 620.022095,413.245911 
	C620.386841,415.895111 618.286865,416.405975 616.847168,417.299622 
	C601.224182,426.998077 581.758667,423.331818 568.328979,408.064362 
	C565.698059,405.073395 563.368896,401.787476 561.143066,398.474640 
	C548.215820,379.235046 529.864441,368.060516 507.816406,362.248840 
	C505.865570,361.734650 503.410522,361.863892 501.830902,358.585022 
	C516.250061,358.077301 529.378784,361.485840 542.700928,366.081299 
z"/>
<path fill="currentColor" opacity="1.000000" stroke="none" 
	d="
M635.002136,416.086670 
	C625.074890,410.329651 616.188354,403.936493 608.847290,394.154449 
	C612.452087,393.742859 613.676941,395.559265 615.207336,396.606934 
	C630.419189,407.020477 646.928284,413.273834 665.655090,412.989319 
	C676.094727,412.830719 685.601196,409.715790 694.773743,405.066284 
	C702.551147,401.124084 710.474792,397.738739 719.560791,398.666046 
	C730.714783,399.804443 738.984131,405.107819 744.043152,415.186371 
	C744.691895,416.478821 745.533997,417.846100 744.736450,419.476868 
	C743.073730,420.359528 742.332397,418.949280 741.536926,418.044434 
	C734.031372,409.507141 724.821655,408.626373 714.649780,411.968018 
	C710.677856,413.272858 706.856384,414.949280 703.294434,417.124908 
	C682.949158,429.551788 662.184082,428.483887 641.149170,419.144745 
	C639.171631,418.266754 637.266174,417.226593 635.002136,416.086670 
z"/>
<path fill="currentColor" opacity="1.000000" stroke="none" 
	d="
M753.507385,341.817444 
	C760.611450,340.810577 766.057190,337.419495 771.204956,333.322937 
	C779.111084,327.031189 786.498657,319.900269 797.186768,318.277161 
	C805.306946,317.044037 812.502869,319.209686 819.435059,322.755066 
	C819.165649,324.133545 818.545166,324.426575 817.870422,324.379028 
	C804.756409,323.455627 795.970398,330.637665 788.367126,340.069366 
	C780.448792,349.891754 771.261902,357.792389 758.236145,359.830383 
	C751.020813,360.959320 743.991638,360.469818 737.222046,357.495178 
	C735.431030,356.708160 733.718384,355.716858 734.092834,353.552338 
	C734.885864,348.969025 733.526611,344.691406 731.944397,339.008270 
	C739.435242,341.328583 746.158752,342.803833 753.507385,341.817444 
z"/>
<path fill="currentColor" opacity="1.000000" stroke="none" 
	d="
M619.105957,286.055908 
	C609.415527,308.289368 591.766113,321.304443 570.450745,329.953888 
	C544.502136,340.483429 517.348511,344.770172 489.405701,344.287018 
	C488.024414,344.263123 486.317230,344.761047 485.337891,342.324371 
	C489.858826,340.448700 494.724640,340.510345 499.332489,339.859344 
	C537.300049,334.495331 571.663391,321.021118 600.906494,295.638306 
	C605.554016,291.604279 610.547852,287.968811 615.388733,284.158264 
	C616.557983,283.237915 617.706543,282.235260 619.369263,282.474640 
	C620.433838,283.610840 619.576660,284.656189 619.105957,286.055908 
z"/>
<path fill="currentColor" opacity="1.000000" stroke="none" 
	d="
M597.976685,272.057129 
	C604.342712,260.966156 611.119934,250.717850 622.332336,244.389633 
	C625.905090,242.373169 629.484985,240.384857 635.139893,239.884613 
	C631.071716,244.641006 626.242981,247.178604 624.329468,253.433273 
	C633.124939,248.467392 641.631348,245.113800 650.769409,243.843750 
	C659.948120,242.568054 669.134399,242.216156 679.272217,244.725250 
	C676.550842,246.762573 674.243286,246.856873 672.127441,247.228210 
	C658.194702,249.673355 645.753906,255.236557 635.129272,264.670227 
	C633.870361,265.788055 632.545715,266.744171 630.885132,267.199890 
	C614.621033,271.663605 602.192810,281.530334 592.016724,294.650177 
	C590.568542,296.517303 589.467102,298.918671 585.564270,300.407318 
	C589.259644,290.035309 593.478149,281.186676 597.976685,272.057129 
z"/>
<path fill="currentColor" opacity="1.000000" stroke="none" 
	d="
M268.958130,270.463196 
	C268.084106,262.708984 268.644196,255.700134 273.589630,249.725906 
	C279.339355,242.780090 288.264954,240.855087 296.092865,244.839737 
	C303.857361,248.792114 308.604584,258.602631 306.663116,266.606506 
	C306.068695,269.057098 305.011047,271.286987 303.848999,273.510162 
	C301.140930,278.691162 302.271790,282.172577 307.468262,285.062256 
	C309.499603,286.191833 311.699036,287.084930 313.553955,288.449860 
	C316.046356,290.283905 317.373077,292.966797 315.638336,295.850677 
	C313.947266,298.662018 310.860870,300.182373 307.912018,298.435059 
	C302.872711,295.449127 297.485657,293.897339 291.967896,292.148529 
	C284.186890,289.682373 282.333649,278.287628 287.796021,270.861115 
	C289.688782,268.287781 292.034332,266.108063 294.812958,264.567657 
	C297.853943,262.881744 297.952301,260.738586 296.652954,257.904083 
	C294.008453,252.135162 287.415955,250.136856 281.993011,253.855881 
	C274.953186,258.683746 273.532562,265.871460 274.618835,273.726959 
	C275.046265,276.817871 276.274200,279.798218 277.139526,282.828369 
	C277.570770,284.338440 278.784393,285.802307 277.066925,288.017487 
	C271.836914,283.319305 270.640625,277.008118 268.958130,270.463196 
z"/>
<path fill="currentColor" opacity="1.000000" stroke="none" 
	d="
M505.600830,335.240845 
	C502.388000,332.910858 505.269470,332.570831 506.483643,332.076752 
	C512.814758,329.500519 519.055664,326.746979 525.030823,323.416534 
	C530.435547,320.404053 535.565063,316.974976 539.975708,312.619507 
	C548.676636,304.027557 556.381775,295.047150 549.452271,281.652283 
	C555.853149,280.488129 559.654053,283.188995 563.936401,291.769623 
	C570.188965,285.614777 570.163330,277.825195 569.618042,268.643768 
	C574.760620,272.533173 575.736389,276.992584 576.257629,281.436432 
	C577.866333,295.151642 571.414978,305.275146 561.039978,313.174561 
	C544.757751,325.571838 525.927307,331.871826 505.600830,335.240845 
z"/>
<path fill="currentColor" opacity="1.000000" stroke="none" 
	d="
M667.951904,350.049255 
	C660.924927,353.091431 656.050598,350.715973 650.687134,346.243958 
	C636.713745,334.593079 620.518921,330.601013 602.567505,334.867218 
	C601.175964,335.197906 599.711182,335.890808 598.318848,334.769501 
	C606.665344,320.817963 628.860291,315.324371 645.423157,323.044678 
	C651.665344,325.954254 657.067749,330.132324 662.496155,334.255615 
	C668.206116,338.592773 673.904053,342.912476 680.657837,345.558990 
	C681.428711,345.861084 682.213074,346.190948 682.207825,347.733612 
	C677.633484,348.463318 672.996948,349.202911 667.951904,350.049255 
z"/>
<path fill="currentColor" opacity="1.000000" stroke="none" 
	d="
M774.575928,295.500458 
	C766.145386,308.179535 743.651306,314.261902 735.650452,310.202972 
	C736.080566,308.369476 737.814636,308.275757 739.105713,307.843079 
	C752.074341,303.497101 760.729126,294.518707 766.651611,282.519623 
	C769.008057,277.745392 771.366760,273.009979 775.076721,269.016541 
	C782.404541,261.128906 796.913147,260.509155 806.234131,271.360931 
	C805.162903,272.819305 803.839478,271.892334 802.645386,271.694519 
	C793.416870,270.165710 787.771790,272.828705 783.063721,280.965973 
	C780.313782,285.718872 777.552063,290.464996 774.575928,295.500458 
z"/>
<path fill="currentColor" opacity="1.000000" stroke="none" 
	d="
M710.203369,356.322784 
	C712.807129,358.468384 710.865967,359.847168 709.676697,360.980438 
	C705.941711,364.539246 701.861877,367.673859 697.317749,370.175720 
	C695.427368,371.216522 693.656494,371.249268 691.631042,370.413361 
	C675.302124,363.674561 658.765320,363.002472 642.029907,368.887848 
	C640.943054,369.270081 639.775208,369.459839 638.628174,369.612396 
	C638.225830,369.665924 637.772827,369.338318 637.295166,369.167694 
	C648.373840,356.318756 679.862244,345.755035 710.203369,356.322784 
z"/>
<path fill="currentColor" opacity="1.000000" stroke="none" 
	d="
M561.485168,356.492340 
	C573.467468,356.270050 582.717102,360.912292 590.363647,369.161438 
	C589.078735,371.828644 587.014526,371.179260 585.324280,371.233063 
	C573.492310,371.609802 562.193726,368.782013 551.146057,364.995514 
	C532.531738,358.615662 513.650635,353.447235 494.071777,351.051239 
	C492.480469,350.856506 490.729706,350.701233 488.728180,347.940796 
	C513.905640,347.087830 537.249878,353.937378 561.485168,356.492340 
z"/>
<path fill="currentColor" opacity="1.000000" stroke="none" 
	d="
M432.953003,196.590668 
	C442.406372,194.662430 451.209991,195.488373 459.788574,198.784927 
	C461.020721,199.258408 462.248962,199.835648 463.336426,200.574692 
	C466.872711,202.977921 467.659637,206.753906 465.607574,210.640732 
	C463.589081,214.463989 460.422241,214.584930 457.129578,212.936539 
	C449.512543,209.123276 441.579468,207.602280 433.048248,208.021713 
	C423.405029,208.495834 415.202148,212.794861 406.786133,216.721497 
	C404.809570,217.643692 402.991882,219.431107 399.104187,218.284836 
	C408.282379,206.943542 419.105591,199.892014 432.953003,196.590668 
z"/>
<path fill="currentColor" opacity="1.000000" stroke="none" 
	d="
M820.173828,344.949646 
	C806.657715,339.778900 798.043701,347.192139 790.915894,356.188141 
	C788.596741,355.140839 788.675171,354.061707 788.989502,353.147308 
	C792.857849,341.895325 799.061157,332.969757 811.607239,330.192841 
	C815.919128,329.238403 820.013245,330.084259 823.768616,331.761902 
	C831.950745,335.417053 839.454346,335.835449 846.204895,328.938141 
	C846.600525,328.533966 847.361816,328.487762 849.037659,327.884521 
	C848.799744,333.903809 845.566345,337.606659 842.216309,340.945312 
	C836.041199,347.099243 828.620911,348.079865 820.173828,344.949646 
z"/>
<path fill="currentColor" opacity="1.000000" stroke="none" 
	d="
M715.169128,257.784515 
	C719.058105,259.831512 722.759399,261.257782 726.794556,261.694427 
	C732.531433,262.315125 731.819458,266.927399 732.317444,270.739899 
	C732.847778,274.799744 731.556763,277.572479 727.023621,278.061951 
	C721.850403,278.620605 716.731323,278.378723 711.645325,277.311829 
	C702.241577,275.339172 693.162476,272.432037 684.146851,268.297546 
	C685.382385,266.113983 687.082031,266.028595 688.631836,265.779877 
	C695.819031,264.626190 702.479553,262.133026 708.243347,257.654572 
	C710.612366,255.813797 712.621948,255.551636 715.169128,257.784515 
z"/>
<path fill="currentColor" opacity="1.000000" stroke="none" 
	d="
M447.221069,248.237839 
	C441.666107,248.473434 438.903687,246.236115 437.052704,240.507584 
	C436.070984,237.469193 436.077087,234.342133 436.334961,230.810303 
	C427.549774,232.501541 420.486664,237.932068 412.269470,240.132767 
	C410.937958,237.410095 412.692932,236.191254 413.907379,235.035828 
	C423.651581,225.765335 434.894257,219.849060 448.706665,219.891190 
	C451.042145,219.898315 453.357513,219.880249 455.617645,219.107666 
	C457.023041,218.627258 458.698853,218.026154 459.753754,219.510498 
	C460.883789,221.100647 460.327301,223.359039 458.925690,223.959702 
	C452.255402,226.818268 452.917419,232.561661 452.528503,238.175323 
	C452.263672,241.998444 451.129089,245.748825 447.221069,248.237839 
z"/>
<path fill="currentColor" opacity="1.000000" stroke="none" 
	d="
M775.711182,410.015808 
	C766.541138,413.556763 757.962463,412.380646 749.744995,408.417816 
	C739.536255,403.494812 731.421448,394.492889 718.590942,393.896484 
	C720.305481,390.936218 721.938171,391.291199 723.517395,391.341309 
	C729.797119,391.540588 735.529541,393.751617 741.230225,396.087341 
	C750.625793,399.936920 760.203430,401.984955 770.421265,399.859985 
	C776.568542,398.581543 782.113525,396.198700 787.164429,392.521149 
	C788.685303,391.413818 790.102173,389.888702 793.286743,390.092102 
	C790.412354,399.845093 784.605347,405.995117 775.711182,410.015808 
z"/>
<path fill="currentColor" opacity="1.000000" stroke="none" 
	d="
M639.013550,342.785339 
	C640.859314,343.886475 642.762817,344.353607 643.792175,346.947845 
	C639.355957,349.779480 634.884399,352.795654 630.251953,355.540253 
	C626.415894,357.813049 623.065674,362.192902 618.758667,362.029022 
	C614.398621,361.863098 611.749878,356.903290 608.251709,354.175079 
	C605.943970,352.375275 602.973022,351.323578 601.131653,348.191132 
	C606.915710,344.509766 612.552673,340.760956 618.361267,337.300201 
	C620.870789,335.805054 623.590820,337.277252 626.125183,337.867462 
	C630.506226,338.887787 634.688782,340.532715 639.013550,342.785339 
z"/>
<path fill="currentColor" opacity="1.000000" stroke="none" 
	d="
M637.172058,312.066833 
	C635.176697,311.784515 633.357727,312.360321 632.213318,310.695312 
	C643.202026,295.341370 675.465515,289.885437 689.437866,301.381378 
	C685.369812,303.159393 681.184570,302.331696 677.264099,302.968628 
	C669.332336,304.257233 661.454773,305.801331 654.347107,309.503754 
	C648.888855,312.346954 643.462524,313.021942 637.172058,312.066833 
z"/>
<path fill="currentColor" opacity="1.000000" stroke="none" 
	d="
M824.241089,281.072601 
	C820.151794,287.691956 814.414307,290.749237 807.156372,289.358185 
	C798.597961,287.717957 790.681396,288.510834 783.769104,293.490112 
	C782.375854,292.582886 782.394043,291.773071 782.726074,290.966156 
	C786.191772,282.544098 797.373474,276.238007 806.097168,278.378052 
	C812.436218,279.933044 818.473328,281.329041 823.777344,276.511993 
	C826.003113,278.074860 824.869202,279.427185 824.241089,281.072601 
z"/>
</svg>